<svg width="13" height="13" viewBox="0 0 13 13" fill="none" xmlns="http://www.w3.org/2000/svg">
<g id="Group">
<path id="Vector" d="M6.68586 0C7.7879 0.0136054 8.8151 0.285712 9.76067 0.843533C10.3933 1.20407 10.7539 1.57822 10.9103 1.68707C10.2641 2.32652 9.63823 2.95237 8.99877 3.57821C8.52939 3.17005 8.00558 2.7959 7.10083 2.65985C6.91035 2.63264 6.72668 2.61903 6.543 2.61903C4.72669 2.61903 3.20289 3.93195 2.79473 5.65303C2.69949 6.04079 2.67228 6.43534 2.70629 6.8299C2.84234 8.42853 3.91717 9.74145 5.36614 10.2108C5.73349 10.3265 6.11444 10.3809 6.50219 10.3809C6.59062 10.3809 6.67906 10.3809 6.7743 10.3741C7.45457 10.3333 8.09402 10.1496 8.67225 9.76866C9.64503 9.1088 9.96476 8.06799 9.96476 7.80948C9.78108 7.80948 6.64505 7.80948 6.48178 7.80948C6.48178 7.72105 6.49539 6.09521 6.50219 5.29929L6.50899 5.19045C8.5498 5.19045 10.5838 5.19045 12.6246 5.19045C12.9511 7.0952 12.6586 9.1088 11.4681 10.6734C10.645 11.755 9.55659 12.4353 8.25048 12.7754C7.67225 12.9251 7.08722 12.9999 6.49539 12.9999C6.36614 12.9999 6.24369 12.9931 6.11444 12.9863C4.84233 12.9115 3.67908 12.5101 2.65187 11.755C1.32535 10.7823 0.495419 9.47614 0.141679 7.87071C0.0124282 7.28567 -0.0283882 6.70745 0.0192306 6.12242C0.114468 4.73467 0.597459 3.48978 1.48861 2.40815C2.41378 1.2789 3.58384 0.537413 4.99199 0.183673C5.34573 0.0884357 5.70627 0.0340143 6.06682 0.0136062C6.2777 0.0136062 6.48178 0 6.68586 0Z" fill="white"/>
</g>
</svg>
