<svg width="36" height="12" viewBox="0 0 36 12" fill="none" xmlns="http://www.w3.org/2000/svg">
<g id="Group">
<path id="Vector" d="M6.44103 7.72638C6.15385 8.1298 5.76411 8.43749 5.25812 8.63578C4.75214 8.83407 4.15727 8.93664 3.48718 8.93664C2.80342 8.93664 2.20171 8.77937 1.66838 8.458C1.13504 8.13664 0.731624 7.68535 0.444445 7.09048C0.157265 6.50245 0.00683761 5.81869 0 5.0392V4.30757C0 3.04945 0.294019 2.07167 0.882053 1.37424C1.47009 0.68364 2.29744 0.334924 3.3641 0.334924C4.23932 0.334924 4.94359 0.560564 5.47009 1.00501C6.00342 1.44945 6.32479 2.08535 6.44786 2.90586H5.34701C5.14188 1.79817 4.47863 1.23749 3.37094 1.23749C2.63248 1.23749 2.0718 1.49732 1.68889 2.01698C1.30598 2.53663 1.11453 3.28877 1.11453 4.27339V4.95715C1.11453 5.8939 1.3265 6.64604 1.75727 7.19988C2.18804 7.75373 2.76923 8.03407 3.50086 8.03407C3.91795 8.03407 4.27351 7.98621 4.58804 7.89732C4.90257 7.80843 5.15556 7.65117 5.36069 7.43236V5.55886H3.42564V4.65629H6.44103V7.72638Z" fill="white"/>
<path id="Vector_2" d="M7.82909 5.66159C7.82909 5.05304 7.94533 4.50603 8.18465 4.02056C8.42396 3.53509 8.759 3.15902 9.18294 2.89236C9.60687 2.62569 10.0992 2.49578 10.6462 2.49578C11.4941 2.49578 12.1778 2.78979 12.6975 3.37783C13.2171 3.96586 13.4838 4.74535 13.4838 5.71629V5.79151C13.4838 6.40005 13.3676 6.94022 13.1351 7.41886C12.9026 7.89749 12.5744 8.27355 12.1436 8.54022C11.7129 8.80689 11.2137 8.94364 10.6599 8.94364C9.81884 8.94364 9.13508 8.64962 8.60858 8.06159C8.08892 7.47355 7.82225 6.7009 7.82225 5.7368L7.82909 5.66159ZM8.9026 5.78467C8.9026 6.47526 9.05986 7.02911 9.38123 7.4462C9.7026 7.8633 10.1265 8.07526 10.6667 8.07526C11.2069 8.07526 11.6376 7.8633 11.9522 7.43937C12.2667 7.01544 12.4308 6.42056 12.4308 5.66159C12.4308 4.97783 12.2667 4.43082 11.9453 4.00689C11.624 3.58296 11.1932 3.37099 10.653 3.37099C10.1265 3.37099 9.7026 3.58296 9.38123 4.00005C9.05986 4.41031 8.9026 5.01202 8.9026 5.78467Z" fill="white"/>
<path id="Vector_3" d="M14.5436 5.66159C14.5436 5.05304 14.6598 4.50603 14.8991 4.02056C15.1385 3.53509 15.4735 3.15902 15.8974 2.89236C16.3214 2.62569 16.8137 2.49578 17.3607 2.49578C18.2085 2.49578 18.8923 2.78979 19.412 3.37783C19.9316 3.96586 20.1983 4.74535 20.1983 5.71629V5.79151C20.1983 6.40005 20.082 6.94022 19.8496 7.41886C19.6171 7.89749 19.2889 8.27355 18.8581 8.54022C18.4273 8.80689 17.9282 8.94364 17.3744 8.94364C16.5333 8.94364 15.8496 8.64962 15.3231 8.06159C14.7966 7.47355 14.5368 6.7009 14.5368 5.7368L14.5436 5.66159ZM15.6103 5.78467C15.6103 6.47526 15.7675 7.02911 16.0889 7.4462C16.4103 7.8633 16.8342 8.07526 17.3744 8.07526C17.9145 8.07526 18.3453 7.8633 18.6598 7.43937C18.9744 7.01544 19.1385 6.42056 19.1385 5.66159C19.1385 4.97783 18.9744 4.43082 18.653 4.00689C18.3316 3.58296 17.9009 3.37099 17.3607 3.37099C16.8342 3.37099 16.4103 3.58296 16.0889 4.00005C15.7744 4.41031 15.6103 5.01202 15.6103 5.78467Z" fill="white"/>
<path id="Vector_4" d="M21.2855 5.66843C21.2855 4.69748 21.5111 3.93167 21.9556 3.35731C22.4068 2.78296 22.9949 2.49578 23.7402 2.49578C24.4992 2.49578 25.0872 2.76244 25.518 3.30261L25.5727 2.61202H26.5436V8.67697C26.5436 9.48381 26.3043 10.1129 25.8256 10.5778C25.347 11.0428 24.7111 11.2753 23.9043 11.2753C23.453 11.2753 23.0154 11.1795 22.5915 10.9881C22.1607 10.7966 21.8325 10.5368 21.6068 10.2018L22.1607 9.56586C22.6188 10.1265 23.1727 10.4069 23.8291 10.4069C24.3487 10.4069 24.7521 10.2633 25.0393 9.96928C25.3265 9.67527 25.4701 9.26501 25.4701 8.73851V8.20518C25.0462 8.69749 24.465 8.94364 23.7265 8.94364C23.0017 8.94364 22.4068 8.64962 21.9624 8.06159C21.5111 7.47355 21.2855 6.68039 21.2855 5.66843ZM22.3521 5.78467C22.3521 6.48894 22.4957 7.03595 22.7829 7.43937C23.0701 7.84279 23.4735 8.04108 23.9932 8.04108C24.6633 8.04108 25.1556 7.73339 25.4701 7.12484V4.28723C25.1419 3.69236 24.6564 3.39834 24.0068 3.39834C23.4872 3.39834 23.0838 3.59663 22.7966 4.00005C22.4957 4.40347 22.3521 4.99834 22.3521 5.78467Z" fill="white"/>
<path id="Vector_5" d="M29.2923 8.82735H28.2325V0H29.2923V8.82735Z" fill="white"/>
<path id="Vector_6" d="M33.5726 8.94364C32.7316 8.94364 32.041 8.67014 31.5145 8.11629C30.988 7.56245 30.7214 6.82398 30.7214 5.89407V5.69578C30.7214 5.08039 30.8376 4.52655 31.0769 4.04108C31.3094 3.5556 31.6444 3.17954 32.0684 2.90603C32.4923 2.63253 32.9504 2.49578 33.4427 2.49578C34.2496 2.49578 34.8786 2.76244 35.3299 3.29578C35.7812 3.82911 36 4.58808 36 5.57954V6.02398H31.788C31.8017 6.63937 31.9795 7.13168 32.3282 7.50774C32.6769 7.88381 33.1077 8.07526 33.6342 8.07526C34.0102 8.07526 34.3248 8.00005 34.5914 7.84279C34.8513 7.69236 35.0769 7.48723 35.2752 7.23424L35.9248 7.74022C35.3983 8.54022 34.6188 8.94364 33.5726 8.94364ZM33.4427 3.36415C33.012 3.36415 32.6564 3.52142 32.3624 3.83595C32.0684 4.15048 31.8906 4.58808 31.8222 5.14877H34.9333V5.06672C34.8991 4.52655 34.7555 4.10945 34.4957 3.8086C34.2359 3.50774 33.8872 3.36415 33.4427 3.36415Z" fill="white"/>
</g>
</svg>
