<svg width="10" height="18" viewBox="0 0 10 18" fill="none" xmlns="http://www.w3.org/2000/svg">
<g id="Group">
<path id="Vector" d="M7.09705 0C7.57714 0 8.06419 0.0278303 8.54429 0.048704C8.85739 0.0626197 9.1705 0.104368 9.46273 0.139158L9.44186 3.03364C9.3514 3.03364 9.28182 3.03364 9.21225 3.03364C8.89218 3.03364 8.57908 3.02668 8.25902 3.02668C8.02245 3.02668 7.77892 3.02668 7.54235 3.0406C6.77698 3.06843 6.20644 3.3537 6.17165 4.31389C6.14382 5.00272 6.1299 6.5265 6.1299 6.60999C6.17165 6.60999 6.93006 6.60999 7.69543 6.60999C8.07811 6.60999 8.45384 6.60999 8.71128 6.60999C8.91306 6.60999 9.10788 6.60999 9.33053 6.60999C9.17746 7.72326 9.03134 8.79477 8.87827 9.86629H6.12294L6.06032 18.0001H2.68575L2.74837 9.85237H0L0.0278311 6.61695H2.79707V6.37343C2.80403 5.71938 2.79707 5.06534 2.81795 4.41826C2.8249 4.00774 2.85273 3.58331 2.92231 3.17975C3.11018 2.18478 3.5694 1.35679 4.39739 0.75841C5.12101 0.243526 5.949 0.0208737 6.82569 0C6.91614 0 7.00659 0 7.09705 0Z" fill="white"/>
</g>
</svg>
