<svg width="50" height="9" viewBox="0 0 50 9" fill="none" xmlns="http://www.w3.org/2000/svg">
<g id="Group">
<path id="Vector" d="M4.60562 5.12422H1.09852V8.80872H0V0.45719H5.17194V1.35785H1.09852V4.21674H4.5988L4.60562 5.12422Z" fill="white"/>
<path id="Vector_2" d="M9.96181 8.80873C9.9004 8.68591 9.85264 8.46757 9.8117 8.15371C9.32043 8.66545 8.72682 8.92472 8.0445 8.92472C7.43042 8.92472 6.93233 8.75415 6.53659 8.40617C6.14767 8.05819 5.9498 7.6215 5.9498 7.0893C5.9498 6.4411 6.19543 5.94301 6.6867 5.58138C7.17796 5.22658 7.8671 5.04235 8.76093 5.04235H9.79123V4.55791C9.79123 4.18946 9.68206 3.88924 9.45689 3.6709C9.23855 3.45256 8.91104 3.34339 8.47436 3.34339C8.09227 3.34339 7.7784 3.43892 7.51912 3.62996C7.25984 3.82101 7.13702 4.053 7.13702 4.32592H6.07261C6.07261 4.01888 6.18178 3.71867 6.40012 3.42527C6.61846 3.1387 6.91868 2.90671 7.29395 2.74295C7.66923 2.57237 8.08544 2.4905 8.53577 2.4905C9.2522 2.4905 9.8117 2.6679 10.2143 3.02953C10.6168 3.38433 10.8283 3.88242 10.842 4.50333V7.36222C10.842 7.92854 10.917 8.3857 11.0603 8.72003V8.80873H9.96181ZM8.19461 7.99678C8.52895 7.99678 8.84281 7.90807 9.14303 7.7375C9.44325 7.56692 9.65477 7.34175 9.79123 7.06883V5.7929H8.9588C7.66241 5.7929 7.00739 6.175 7.00739 6.93236C7.00739 7.2667 7.11655 7.52598 7.34172 7.7102C7.56688 7.90808 7.84663 7.99678 8.19461 7.99678Z" fill="white"/>
<path id="Vector_3" d="M15.0041 8.05818C15.3862 8.05818 15.7137 7.94218 15.9934 7.71702C16.2732 7.48503 16.4301 7.19846 16.4642 6.8573H17.4672C17.4468 7.21211 17.3239 7.55326 17.0988 7.87395C16.8736 8.19464 16.5734 8.45392 16.1981 8.64497C15.8228 8.83602 15.4203 8.93154 15.0041 8.93154C14.158 8.93154 13.4893 8.65179 12.9912 8.08547C12.4931 7.51915 12.2407 6.74813 12.2407 5.77242V5.59502C12.2407 4.98776 12.3499 4.45555 12.575 3.98476C12.7934 3.51396 13.1141 3.15233 13.5303 2.89305C13.9465 2.63377 14.4377 2.50413 15.0041 2.50413C15.7 2.50413 16.28 2.71565 16.7371 3.13186C17.1943 3.54808 17.4399 4.08711 17.474 4.75577H16.4642C16.4301 4.35321 16.28 4.0257 16.0071 3.76642C15.7341 3.50714 15.3998 3.3775 14.9972 3.3775C14.4582 3.3775 14.042 3.57537 13.7418 3.95747C13.4484 4.34639 13.2983 4.90588 13.2983 5.64278V5.84065C13.2983 6.55708 13.4484 7.10294 13.7418 7.49185C14.0352 7.8603 14.4582 8.05818 15.0041 8.05818Z" fill="white"/>
<path id="Vector_4" d="M21.2337 8.92472C20.3944 8.92472 19.7053 8.6518 19.1799 8.09913C18.6545 7.54645 18.3884 6.80955 18.3884 5.8816V5.68373C18.3884 5.06965 18.5044 4.51697 18.7432 4.03253C18.9752 3.54808 19.3095 3.17281 19.7326 2.89989C20.1556 2.62696 20.6128 2.4905 21.104 2.4905C21.9092 2.4905 22.5369 2.7566 22.9872 3.28881C23.4375 3.82101 23.6559 4.57838 23.6559 5.56774V6.01124H19.4528C19.4665 6.62532 19.6439 7.11659 19.9918 7.49186C20.3398 7.86714 20.7697 8.05818 21.2951 8.05818C21.6703 8.05818 21.9842 7.98313 22.2503 7.8262C22.5096 7.67609 22.7348 7.47139 22.9326 7.21894L23.5808 7.72385C23.0554 8.52216 22.2776 8.92472 21.2337 8.92472ZM21.104 3.35704C20.6742 3.35704 20.3194 3.51397 20.026 3.82783C19.7326 4.1417 19.5552 4.57838 19.4869 5.13788H22.5915V5.056C22.5574 4.51697 22.4141 4.10076 22.1548 3.80054C21.9023 3.50715 21.5475 3.35704 21.104 3.35704Z" fill="white"/>
<path id="Vector_5" d="M30.1378 5.77238C30.1378 6.7208 29.9195 7.48499 29.4828 8.05813C29.0461 8.63128 28.4594 8.91785 27.7293 8.91785C26.9446 8.91785 26.3374 8.6381 25.9143 8.08543L25.8666 8.80186H24.8908V0H25.9484V3.28876C26.3783 2.75655 26.9651 2.49045 27.7225 2.49045C28.473 2.49045 29.0666 2.77702 29.4965 3.34334C29.9263 3.90966 30.1447 4.69432 30.1447 5.68368V5.77238H30.1378ZM29.0734 5.65639C29.0734 4.93313 28.937 4.37363 28.6572 3.98472C28.3775 3.58897 27.9749 3.3911 27.4495 3.3911C26.7467 3.3911 26.2487 3.71861 25.9416 4.36681V7.04831C26.2691 7.69651 26.774 8.02402 27.4632 8.02402C27.9681 8.02402 28.3638 7.82615 28.6504 7.4304C28.9301 7.03466 29.0734 6.44787 29.0734 5.65639Z" fill="white"/>
<path id="Vector_6" d="M31.1886 5.64961C31.1886 5.04235 31.3114 4.4965 31.5434 4.01206C31.7822 3.52762 32.1166 3.15234 32.5396 2.88624C32.9626 2.62014 33.4539 2.4905 33.9998 2.4905C34.8458 2.4905 35.5282 2.78389 36.0467 3.37068C36.5653 3.95747 36.8314 4.73531 36.8314 5.7042V5.77926C36.8314 6.38652 36.7154 6.92554 36.4834 7.40316C36.2514 7.88078 35.9239 8.25605 35.494 8.52216C35.0642 8.78826 34.5729 8.92472 34.0134 8.92472C33.1742 8.92472 32.4918 8.63133 31.9665 8.04454C31.4479 7.45775 31.1818 6.68673 31.1818 5.72467L31.1886 5.64961ZM32.253 5.77243C32.253 6.46157 32.41 7.01424 32.7307 7.43045C33.0513 7.84667 33.4744 8.05818 34.0134 8.05818C34.5524 8.05818 34.9823 7.84667 35.2962 7.42363C35.61 7.0006 35.7738 6.40698 35.7738 5.64961C35.7738 4.9673 35.61 4.42145 35.2893 3.99841C34.9687 3.57538 34.5388 3.36386 33.9998 3.36386C33.4744 3.36386 33.0513 3.57538 32.7307 3.99159C32.4168 4.40098 32.253 5.00141 32.253 5.77243Z" fill="white"/>
<path id="Vector_7" d="M37.8889 5.64961C37.8889 5.04235 38.0117 4.4965 38.2437 4.01206C38.4825 3.52762 38.8169 3.15234 39.2399 2.88624C39.6629 2.62014 40.1542 2.4905 40.7001 2.4905C41.5461 2.4905 42.2284 2.78389 42.747 3.37068C43.2656 3.95747 43.5317 4.73531 43.5317 5.7042V5.77926C43.5317 6.38652 43.4157 6.92554 43.1837 7.40316C42.9517 7.88078 42.6242 8.25605 42.1943 8.52216C41.7645 8.78826 41.2732 8.92472 40.7137 8.92472C39.8745 8.92472 39.1921 8.63133 38.6668 8.04454C38.1414 7.45775 37.8821 6.68673 37.8821 5.72467L37.8889 5.64961ZM38.9533 5.77243C38.9533 6.46157 39.1103 7.01424 39.4309 7.43045C39.7516 7.84667 40.1747 8.05818 40.7137 8.05818C41.2527 8.05818 41.6826 7.84667 41.9964 7.42363C42.3103 7.0006 42.4741 6.40698 42.4741 5.64961C42.4741 4.9673 42.3103 4.42145 41.9896 3.99841C41.6689 3.57538 41.2391 3.36386 40.7001 3.36386C40.1747 3.36386 39.7516 3.57538 39.4309 3.99159C39.1171 4.40098 38.9533 5.00141 38.9533 5.77243Z" fill="white"/>
<path id="Vector_8" d="M46.5953 5.93614L45.9334 6.6321V8.80868H44.8758V0H45.9334V5.32887L46.4997 4.64656L48.4307 2.60644H49.7203L47.3049 5.19924L50 8.80868H48.7582L46.5953 5.93614Z" fill="white"/>
</g>
</svg>
