<svg width="20" height="23" viewBox="0 0 20 23" fill="none" xmlns="http://www.w3.org/2000/svg">
<g id="Frame" clip-path="url(#clip0_3_1068)">
<path id="Vector" d="M18 6.3335V16.3335C18 20.3335 17 21.3335 13 21.3335H7C3 21.3335 2 20.3335 2 16.3335V6.3335C2 2.3335 3 1.3335 7 1.3335H13C17 1.3335 18 2.3335 18 6.3335Z" stroke="#EE4D2D" stroke-width="1.5" stroke-linecap="round" stroke-linejoin="round"/>
<path id="Vector_2" d="M12 4.8335H8" stroke="#EE4D2D" stroke-width="1.5" stroke-linecap="round" stroke-linejoin="round"/>
<path id="Vector_3" d="M9.99994 18.4335C10.856 18.4335 11.5499 17.7395 11.5499 16.8835C11.5499 16.0275 10.856 15.3335 9.99994 15.3335C9.14391 15.3335 8.44995 16.0275 8.44995 16.8835C8.44995 17.7395 9.14391 18.4335 9.99994 18.4335Z" stroke="#EE4D2D" stroke-width="1.5" stroke-linecap="round" stroke-linejoin="round"/>
</g>
<defs>
<clipPath id="clip0_3_1068">
<rect width="20" height="23" fill="white"/>
</clipPath>
</defs>
</svg>
