<svg width="18" height="22" viewBox="0 0 18 22" fill="none" xmlns="http://www.w3.org/2000/svg">
<g id="Frame" clip-path="url(#clip0_3_989)">
<path id="Vector" d="M13.3077 4.94527H13.0577V5.19527H13.3077V4.94527ZM5.23958 4.94527V5.19527H5.48958V4.94527H5.23958ZM12.0853 4.94527V5.19527H12.3353V4.94527H12.0853ZM6.46199 4.94527H6.21199V5.19527H6.46199V4.94527ZM5.23962 6.11676H5.48962V5.86676H5.23962V6.11676ZM6.46204 6.11676V5.86676H6.21204V6.11676H6.46204ZM12.0854 6.11676H12.3354V5.86676H12.0854V6.11676ZM13.3078 6.11676V5.86676H13.0578V6.11676H13.3078ZM17.7865 17.473L16.8545 6.21773L16.3561 6.25832L17.2882 17.5135L17.7865 17.473ZM16.8545 6.21773C16.7853 5.35402 16.0288 4.69527 15.1486 4.69527V5.19527C15.786 5.19527 16.3092 5.67187 16.3561 6.25832L16.8545 6.21773ZM15.1486 4.69527H13.3077V5.19527H15.1486V4.69527ZM13.5577 4.94527V4.86598H13.0577V4.94527H13.5577ZM13.5577 4.86598C13.5577 2.58626 11.626 0.75 9.27364 0.75V1.25C11.3701 1.25 13.0577 2.88225 13.0577 4.86598H13.5577ZM9.27364 0.75C6.9213 0.75 4.98958 2.58627 4.98958 4.86598H5.48958C5.48958 2.88225 7.17717 1.25 9.27364 1.25V0.75ZM4.98958 4.86598V4.94527H5.48958V4.86598H4.98958ZM5.23958 4.69527H3.39869V5.19527H5.23958V4.69527ZM3.39869 4.69527C2.51868 4.69527 1.76189 5.35447 1.69286 6.21689L2.19121 6.25747C2.23801 5.6727 2.7611 5.19527 3.39869 5.19527V4.69527ZM1.69286 6.21689L0.760718 17.4738L1.25901 17.515L2.19121 6.25747L1.69286 6.21689ZM0.760718 17.4738C0.682716 18.4483 1.03547 19.4165 1.72526 20.1301L2.08478 19.7826C1.49247 19.1698 1.19272 18.3432 1.25901 17.515L0.760718 17.4738ZM1.72526 20.1301C2.41453 20.8433 3.38857 21.25 4.39803 21.25V20.75C3.52066 20.75 2.67744 20.3959 2.08478 19.7826L1.72526 20.1301ZM4.39803 21.25H14.1493V20.75H4.39803V21.25ZM14.1493 21.25C15.1587 21.25 16.1328 20.8433 16.8221 20.1302L16.4626 19.7827C15.8698 20.3959 15.0266 20.75 14.1493 20.75V21.25ZM16.8221 20.1302C17.5119 19.4165 17.8646 18.4489 17.7865 17.473L17.2882 17.5135C17.3546 18.3433 17.0548 19.1699 16.4626 19.7827L16.8221 20.1302ZM6.71199 4.86598C6.71199 3.52823 7.85124 2.42148 9.27364 2.42148V1.92148C7.59536 1.92148 6.21199 3.23224 6.21199 4.86598H6.71199ZM9.27364 2.42148C10.6961 2.42148 11.8353 3.52827 11.8353 4.86598H12.3353C12.3353 3.23228 10.952 1.92148 9.27364 1.92148V2.42148ZM11.8353 4.86598V4.94527H12.3353V4.86598H11.8353ZM12.0853 4.69527H6.46199V5.19527H12.0853V4.69527ZM6.71199 4.94527V4.86598H6.21199V4.94527H6.71199ZM15.5657 18.9866C15.1975 19.3675 14.6961 19.5785 14.1493 19.5785V20.0785C14.8282 20.0785 15.4604 19.815 15.9252 19.3341L15.5657 18.9866ZM14.1493 19.5785H4.39803V20.0785H14.1493V19.5785ZM4.39803 19.5785C3.85119 19.5785 3.34975 19.3675 2.9816 18.9866L2.62207 19.3341C3.08682 19.8149 3.7191 20.0785 4.39803 20.0785V19.5785ZM2.9816 18.9866C2.61378 18.6061 2.43689 18.1163 2.47781 17.6055L1.97946 17.5649C1.9268 18.2222 2.1569 18.8529 2.62207 19.3341L2.9816 18.9866ZM2.47781 17.6055L3.40996 6.3486L2.91167 6.30734L1.97946 17.5649L2.47781 17.6055ZM3.40996 6.3486C3.40917 6.35853 3.40455 6.36337 3.40281 6.36492C3.40117 6.36638 3.39965 6.36676 3.39873 6.36676V5.86676C3.15347 5.86676 2.9322 6.05018 2.91167 6.30734L3.40996 6.3486ZM3.39873 6.36676H5.23962V5.86676H3.39873V6.36676ZM4.98962 6.11676V7.55953H5.48962V6.11676H4.98962ZM4.98962 7.55953C4.98962 8.031 5.38535 8.39527 5.85083 8.39527V7.89527C5.64122 7.89527 5.48962 7.73502 5.48962 7.55953H4.98962ZM5.85083 8.39527C6.3163 8.39527 6.71204 8.031 6.71204 7.55953H6.21204C6.21204 7.73502 6.06043 7.89527 5.85083 7.89527V8.39527ZM6.71204 7.55953V6.11676H6.21204V7.55953H6.71204ZM6.46204 6.36676H12.0854V5.86676H6.46204V6.36676ZM11.8354 6.11676V7.55953H12.3354V6.11676H11.8354ZM11.8354 7.55953C11.8354 8.031 12.2311 8.39527 12.6966 8.39527V7.89527C12.487 7.89527 12.3354 7.73502 12.3354 7.55953H11.8354ZM12.6966 8.39527C13.1621 8.39527 13.5578 8.031 13.5578 7.55953H13.0578C13.0578 7.73502 12.9062 7.89527 12.6966 7.89527V8.39527ZM13.5578 7.55953V6.11676H13.0578V7.55953H13.5578ZM13.3078 6.36676H15.1486V5.86676H13.3078V6.36676ZM15.1486 6.36676C15.1476 6.36676 15.1459 6.36632 15.1441 6.36472C15.1421 6.36296 15.1381 6.35778 15.1375 6.34948L15.6359 6.30951C15.6152 6.05199 15.395 5.86676 15.1486 5.86676V6.36676ZM15.1375 6.34948L16.0695 17.6046L16.5679 17.5641L15.6359 6.30951L15.1375 6.34948ZM16.0695 17.6046C16.1104 18.1171 15.9334 18.6061 15.5657 18.9866L15.9252 19.3341C16.3904 18.8527 16.6206 18.2228 16.5679 17.5641L16.0695 17.6046Z" fill="black"/>
</g>
<defs>
<clipPath id="clip0_3_989">
<rect width="18" height="22" fill="white"/>
</clipPath>
</defs>
</svg>
