<svg width="20" height="23" viewBox="0 0 20 23" fill="none" xmlns="http://www.w3.org/2000/svg">
<g id="Frame">
<path id="Vector" d="M18 6.3335V16.3335C18 20.3335 17 21.3335 13 21.3335H7C3 21.3335 2 20.3335 2 16.3335V6.3335C2 2.3335 3 1.3335 7 1.3335H13C17 1.3335 18 2.3335 18 6.3335Z" stroke="#EE4D2D" stroke-width="1.5" stroke-linecap="round" stroke-linejoin="round"/>
<path id="Vector_2" d="M12 4.8335H8" stroke="#EE4D2D" stroke-width="1.5" stroke-linecap="round" stroke-linejoin="round"/>
<path id="Vector_3" d="M9.99921 18.4335C10.8553 18.4335 11.5492 17.7395 11.5492 16.8835C11.5492 16.0275 10.8553 15.3335 9.99921 15.3335C9.14318 15.3335 8.44922 16.0275 8.44922 16.8835C8.44922 17.7395 9.14318 18.4335 9.99921 18.4335Z" stroke="#EE4D2D" stroke-width="1.5" stroke-linecap="round" stroke-linejoin="round"/>
</g>
</svg>
