<svg width="20" height="21" viewBox="0 0 20 21" fill="none" xmlns="http://www.w3.org/2000/svg">
<g id="Frame">
<path id="Vector" d="M18.3077 15.6083C18.3077 15.9083 18.241 16.2167 18.0994 16.5167C17.9577 16.8167 17.7744 17.1 17.5327 17.3667C17.1244 17.8167 16.6744 18.1417 16.166 18.35C15.666 18.5583 15.1244 18.6667 14.541 18.6667C13.691 18.6667 12.7827 18.4667 11.8244 18.0583C10.866 17.65 9.90769 17.1 8.95769 16.4083C7.99935 15.7083 7.09102 14.9333 6.22435 14.075C5.36602 13.2083 4.59102 12.3 3.89935 11.35C3.21602 10.4 2.66602 9.45 2.26602 8.50833C1.86602 7.55833 1.66602 6.65 1.66602 5.78333C1.66602 5.21667 1.76602 4.675 1.96602 4.175C2.16602 3.66667 2.48268 3.2 2.92435 2.78333C3.45768 2.25833 4.04102 2 4.65768 2C4.89102 2 5.12435 2.05 5.33268 2.15C5.54935 2.25 5.74102 2.4 5.89102 2.61667L7.82435 5.34167C7.97435 5.55 8.08268 5.74167 8.15768 5.925C8.23268 6.1 8.27435 6.275 8.27435 6.43333C8.27435 6.63333 8.21602 6.83333 8.09935 7.025C7.99102 7.21667 7.83268 7.41667 7.63268 7.61667L6.99935 8.275C6.90768 8.36667 6.86602 8.475 6.86602 8.60833C6.86602 8.675 6.87435 8.73333 6.89102 8.8C6.91602 8.86667 6.94102 8.91667 6.95769 8.96667C7.10769 9.24167 7.36602 9.6 7.73268 10.0333C8.10768 10.4667 8.50768 10.9083 8.94102 11.35C9.39102 11.7917 9.82435 12.2 10.266 12.575C10.6994 12.9417 11.0577 13.1917 11.341 13.3417C11.3827 13.3583 11.4327 13.3833 11.491 13.4083C11.5577 13.4333 11.6244 13.4417 11.6994 13.4417C11.841 13.4417 11.9494 13.3917 12.041 13.3L12.6744 12.675C12.8827 12.4667 13.0827 12.3083 13.2744 12.2083C13.466 12.0917 13.6577 12.0333 13.866 12.0333C14.0244 12.0333 14.191 12.0667 14.3744 12.1417C14.5577 12.2167 14.7494 12.325 14.9577 12.4667L17.716 14.425C17.9327 14.575 18.0827 14.75 18.1744 14.9583C18.2577 15.1667 18.3077 15.375 18.3077 15.6083Z" stroke="#EE4D2D" stroke-width="1.5" stroke-miterlimit="10"/>
</g>
</svg>
