<svg width="20" height="21" viewBox="0 0 20 21" fill="none" xmlns="http://www.w3.org/2000/svg">
<g id="Frame">
<path id="Vector" d="M18.3086 15.6083C18.3086 15.9083 18.2419 16.2167 18.1003 16.5167C17.9586 16.8167 17.7753 17.1 17.5336 17.3667C17.1253 17.8167 16.6753 18.1417 16.1669 18.35C15.6669 18.5583 15.1253 18.6667 14.5419 18.6667C13.6919 18.6667 12.7836 18.4667 11.8253 18.0583C10.8669 17.65 9.90866 17.1 8.95866 16.4083C8.00032 15.7083 7.09199 14.9333 6.22532 14.075C5.36699 13.2083 4.59199 12.3 3.90032 11.35C3.21699 10.4 2.66699 9.45 2.26699 8.50833C1.86699 7.55833 1.66699 6.65 1.66699 5.78333C1.66699 5.21667 1.76699 4.675 1.96699 4.175C2.16699 3.66667 2.48365 3.2 2.92532 2.78333C3.45865 2.25833 4.04199 2 4.65865 2C4.89199 2 5.12532 2.05 5.33365 2.15C5.55032 2.25 5.74199 2.4 5.89199 2.61667L7.82532 5.34167C7.97532 5.55 8.08365 5.74167 8.15865 5.925C8.23365 6.1 8.27532 6.275 8.27532 6.43333C8.27532 6.63333 8.21699 6.83333 8.10032 7.025C7.99199 7.21667 7.83365 7.41667 7.63365 7.61667L7.00032 8.275C6.90865 8.36667 6.86699 8.475 6.86699 8.60833C6.86699 8.675 6.87532 8.73333 6.89199 8.8C6.91699 8.86667 6.94199 8.91667 6.95866 8.96667C7.10866 9.24167 7.36699 9.6 7.73365 10.0333C8.10865 10.4667 8.50865 10.9083 8.94199 11.35C9.39199 11.7917 9.82532 12.2 10.2669 12.575C10.7003 12.9417 11.0586 13.1917 11.3419 13.3417C11.3836 13.3583 11.4336 13.3833 11.4919 13.4083C11.5586 13.4333 11.6253 13.4417 11.7003 13.4417C11.8419 13.4417 11.9503 13.3917 12.0419 13.3L12.6753 12.675C12.8836 12.4667 13.0836 12.3083 13.2753 12.2083C13.4669 12.0917 13.6586 12.0333 13.8669 12.0333C14.0253 12.0333 14.1919 12.0667 14.3753 12.1417C14.5586 12.2167 14.7503 12.325 14.9586 12.4667L17.7169 14.425C17.9336 14.575 18.0836 14.75 18.1753 14.9583C18.2586 15.1667 18.3086 15.375 18.3086 15.6083Z" stroke="#EE4D2D" stroke-width="1.5" stroke-miterlimit="10"/>
</g>
</svg>
