<svg width="12" height="12" viewBox="0 0 12 12" fill="none" xmlns="http://www.w3.org/2000/svg">
<path id="Vector" d="M6.08385 12C2.77768 12 0 9.30615 0 6.00001C0 2.69389 2.77768 0 6.08385 0C7.91412 0 9.21593 0.715368 10.1955 1.6563L9.04195 2.8099C8.33945 2.15254 7.38567 1.63696 6.08385 1.63696C3.66705 1.63696 1.77874 3.58326 1.77874 6.00001C1.77874 8.41679 3.66705 10.3631 6.08385 10.3631C7.64989 10.3631 8.53925 9.73156 9.11282 9.16442C9.58327 8.69389 9.88619 8.02364 10.0022 7.10211H6.08385V5.45869H11.6005C11.6585 5.74865 11.6907 6.10312 11.6907 6.48341C11.6907 7.71429 11.3556 9.23528 10.2729 10.318C9.21593 11.4136 7.87543 12 6.08385 12Z" fill="#4285F4"/>
</svg>
