<svg width="7" height="8" viewBox="0 0 7 8" fill="none" xmlns="http://www.w3.org/2000/svg">
<path id="Vector" d="M5.62776 5.079L6.92946 5.94677C6.50828 6.57214 5.49381 7.6441 3.73907 7.6441C1.5633 7.6441 0 5.96596 0 3.82205C0 1.55048 1.58241 0 3.55408 0C5.53841 0 6.50828 1.57604 6.82737 2.43108L6.99961 2.86492L1.88869 4.98335C2.27794 5.74904 2.89049 6.14458 3.74544 6.14458C4.60047 6.14458 5.19391 5.71711 5.62776 5.079ZM1.61435 3.70077L5.0344 2.28431C4.84296 1.80571 4.28146 1.47395 3.61149 1.47395C2.75646 1.47395 1.56967 2.22689 1.61435 3.70077Z" fill="#E94235"/>
</svg>
