<svg width="49" height="18" viewBox="0 0 49 18" fill="none" xmlns="http://www.w3.org/2000/svg">
<g id="Group" opacity="0.6">
<path id="Vector" d="M11.3574 3.13078L11.7666 2.72166L11.3493 2.32087C10.3184 1.33063 8.92867 0.567034 6.99513 0.567034C3.50691 0.567034 0.566667 3.40616 0.566667 6.91472C0.566667 10.4234 3.50691 13.2624 6.99513 13.2624C8.86289 13.2624 10.304 12.6434 11.4356 11.4722C12.6222 10.283 12.964 8.6473 12.964 7.38045C12.964 6.98488 12.9308 6.60519 12.8661 6.28198L12.775 5.82615H6.42809V8.54357H10.0799C9.94957 8.99463 9.75323 9.32125 9.51356 9.5613C9.03815 10.0311 8.31725 10.5513 6.99513 10.5513C4.98973 10.5513 3.41446 8.93997 3.41446 6.91472C3.41446 4.88954 4.98973 3.27823 6.99513 3.27823C8.08098 3.27823 8.86652 3.70215 9.45761 4.25528L9.85817 4.63008L10.246 4.2422L11.3574 3.13078Z" fill="white" stroke="white" stroke-width="1.12966"/>
<path id="Vector_2" d="M16.9483 13.2562C19.2838 13.2562 21.185 11.4272 21.185 8.97001C21.185 6.49914 19.2826 4.6837 16.9483 4.6837C14.6142 4.6837 12.7118 6.49914 12.7118 8.97001C12.7118 11.4272 14.6129 13.2562 16.9483 13.2562ZM16.9483 7.28309C17.715 7.28309 18.4427 7.91591 18.4427 8.97001C18.4427 10.0137 17.7129 10.6568 16.9483 10.6568C16.1848 10.6568 15.454 10.0086 15.454 8.97001C15.454 7.92105 16.1827 7.28309 16.9483 7.28309Z" fill="white" stroke="white" stroke-width="1.12966"/>
<path id="Vector_3" d="M25.1784 10.6568H25.1752C24.4117 10.6568 23.6808 10.0086 23.6808 8.97001C23.6808 7.92105 24.4096 7.28309 25.1752 7.28309C25.9418 7.28309 26.6695 7.91591 26.6695 8.97001C26.6695 10.0168 25.9377 10.6612 25.1784 10.6568ZM25.169 13.2562C27.5045 13.2562 29.4056 11.4272 29.4056 8.97001C29.4056 6.49914 27.5032 4.6837 25.169 4.6837C22.8347 4.6837 20.9324 6.49914 20.9324 8.97001C20.9324 11.4278 22.8403 13.2562 25.169 13.2562Z" fill="white" stroke="white" stroke-width="1.12966"/>
<path id="Vector_4" d="M37.4282 5.47418V4.90716H34.7418V4.9998C34.326 4.80188 33.8329 4.67742 33.2909 4.67742C31.1107 4.67742 29.1598 6.58112 29.1598 8.98236C29.1598 10.5904 30.0399 11.9672 31.2793 12.6974L31.2295 12.718L29.8077 13.3079L29.2838 13.5252L29.5012 14.049C29.9721 15.1834 31.2232 16.5967 33.322 16.5967C34.3884 16.5967 35.4291 16.2833 36.2056 15.5312C36.9867 14.7744 37.4282 13.6437 37.4282 12.1552V5.47418ZM31.9699 13.023C32.3897 13.1745 32.8351 13.2562 33.2909 13.2562C33.8056 13.2562 34.2782 13.1453 34.6828 12.962C34.6166 13.2562 34.5001 13.4693 34.3613 13.6184C34.1487 13.8469 33.8168 13.9973 33.322 13.9973C32.6325 13.9973 32.1727 13.5077 31.9699 13.023ZM33.4337 7.28305C34.1688 7.28305 34.8536 7.92441 34.8536 8.98856C34.8536 10.0316 34.1765 10.663 33.4337 10.663C32.6453 10.663 31.9269 10.0024 31.9269 8.98856C31.9269 7.94868 32.6523 7.28305 33.4337 7.28305ZM40.2904 1.53144V0.9644H37.5233V13.0389H40.2904V1.53144Z" fill="white" stroke="white" stroke-width="1.12966"/>
<path id="Vector_5" d="M46.4707 9.72756L46.0033 9.41591L45.6873 9.88051C45.3424 10.3877 44.9235 10.6692 44.3245 10.6692C43.999 10.6692 43.7503 10.5951 43.5536 10.471C43.5006 10.4376 43.449 10.3991 43.3989 10.3549L47.7083 8.56867L48.2243 8.35471L48.0182 7.83552L47.8527 7.41863C47.5103 6.5057 46.4238 4.68989 44.1383 4.68989C41.8828 4.68989 40.1127 6.47689 40.1127 8.97619C40.1127 11.3559 41.8685 13.2625 44.3183 13.2625C46.2873 13.2625 47.4265 12.0535 47.8932 11.3606L48.2115 10.888L47.7374 10.572L46.4707 9.72756ZM44.5302 7.30039L43.067 7.90637C43.3539 7.47216 43.8311 7.25827 44.1942 7.25827C44.3191 7.25827 44.4313 7.27393 44.5302 7.30039Z" fill="white" stroke="white" stroke-width="1.12966"/>
</g>
</svg>
