<svg width="8" height="11" viewBox="0 0 8 11" fill="none" xmlns="http://www.w3.org/2000/svg">
<path id="Vector" d="M7.27641 0.234266V7.04831C7.27641 9.85379 5.62352 11 3.66674 11C1.82385 11 0.721996 9.76511 0.303974 8.75819L1.75421 8.15656C2.01385 8.77716 2.64717 9.50548 3.66674 9.50548C4.92057 9.50548 5.69323 8.72657 5.69323 7.27633V6.73169H5.63617C5.26256 7.19398 4.54064 7.59295 3.63504 7.59295C1.73524 7.59295 0 5.94014 0 3.81232C0 1.67186 1.74157 0 3.63504 0C4.54064 0 5.26256 0.405299 5.63617 0.848537H5.69323V0.234266H7.27641ZM5.8072 3.81865C5.8072 2.48246 4.91425 1.50082 3.78071 1.50082C2.62812 1.50082 1.66554 2.47606 1.66554 3.81865C1.66554 5.14219 2.62812 6.10478 3.78071 6.10478C4.91425 6.10478 5.8072 5.14219 5.8072 3.81865Z" fill="#4285F4"/>
</svg>
