<svg width="27" height="23" viewBox="0 0 27 23" fill="none" xmlns="http://www.w3.org/2000/svg">
<g id="Group">
<path id="Vector" d="M26.8247 11.7377L25.5796 1.20645C25.5372 0.846529 25.3534 0.517841 25.0684 0.293644C24.7833 0.0694467 24.4234 -0.0330433 24.0619 0.00939397L1.20581 2.71097C0.456751 2.79984 -0.0789193 3.47884 0.00955843 4.2287L2.08538 21.7933C2.16785 22.4887 2.75757 23 3.44097 23C3.49422 23 3.54907 22.9964 3.60351 22.9904C4.35217 22.9015 4.88784 22.2225 4.79977 21.4726L2.88408 5.26401L23.0262 2.88352L24.1103 12.0576C24.1992 12.807 24.875 13.3395 25.6281 13.2546C26.3771 13.1665 26.9128 12.4872 26.8247 11.7377Z" fill="black"/>
</g>
</svg>
