<svg width="23" height="19" viewBox="0 0 23 19" fill="none" xmlns="http://www.w3.org/2000/svg">
<g id="Group">
<path id="Vector" d="M22.3878 4.96461C22.1979 4.65832 21.8948 4.44101 21.5444 4.35918L3.05923 0.035739C2.70923 -0.0464949 2.34057 0.0146841 2.03468 0.203782C1.72958 0.393675 1.51188 0.696788 1.43004 1.04718L0.0360365 7.00615C-0.134788 7.73514 0.318097 8.46451 1.04748 8.63454C1.77646 8.80537 2.50663 8.35248 2.67666 7.62311L3.76199 2.98504L19.6061 6.69112L17.1165 17.3358C16.9456 18.0648 17.3985 18.7942 18.1279 18.9642C18.2324 18.9885 18.3361 19 18.4386 19C19.0543 19 19.6117 18.5781 19.7567 17.9532L22.5554 5.98836C22.638 5.63837 22.5777 5.26971 22.3878 4.96461Z" fill="black"/>
</g>
</svg>
