<svg width="63" height="10" viewBox="0 0 63 10" fill="none" xmlns="http://www.w3.org/2000/svg">
<g id="Group">
<path id="Vector" d="M62.8046 7.51278L58.6959 0.664851C58.4488 0.251977 58.003 0 57.5215 0H53.5841C52.8282 0 52.2147 0.613492 52.2147 1.36942C52.2147 2.12536 52.8282 2.73885 53.5841 2.73885H56.7463L59.2115 6.84753H3.78809L6.2533 2.73885H7.70377C8.4597 2.73885 9.0732 2.12536 9.0732 1.36942C9.0732 0.613492 8.4597 0 7.70377 0H5.47811C4.99662 0 4.55084 0.251977 4.30368 0.664851L0.195003 7.51278C-0.0589802 7.93649 -0.0649985 8.46332 0.177751 8.89264C0.4205 9.32197 0.875503 9.58758 1.36943 9.58758H61.6302C62.1241 9.58758 62.5787 9.32197 62.8219 8.89264C63.065 8.46332 63.0586 7.93569 62.8046 7.51278Z" fill="black"/>
</g>
</svg>
