<svg width="28" height="14" viewBox="0 0 28 14" fill="none" xmlns="http://www.w3.org/2000/svg">
<g id="Group">
<path id="Vector" d="M27.3984 12.3148L24.6884 1.04504C24.6036 0.693431 24.3823 0.389028 24.0739 0.199826C23.7655 0.0122237 23.3955 -0.0465778 23.0415 0.0374232L1.04647 5.32709C0.313258 5.50309 -0.137947 6.2407 0.0380546 6.97391L1.39247 12.6068C1.56847 13.3408 2.30608 13.7924 3.03889 13.6152C3.7721 13.4392 4.2233 12.7016 4.0473 11.9684L3.01169 7.66271L22.3519 3.01226L24.7428 12.954C24.8928 13.58 25.4528 14 26.0692 14C26.1752 14 26.2824 13.9876 26.39 13.9616C27.1232 13.7852 27.5744 13.048 27.3984 12.3148Z" fill="black"/>
</g>
</svg>
