<svg width="24" height="21" viewBox="0 0 24 21" fill="none" xmlns="http://www.w3.org/2000/svg">
<g id="Group">
<path id="Vector" d="M22.3999 0H22.292C21.5192 0 20.8921 0.627129 20.8921 1.39986C20.8921 1.591 20.9299 1.77351 21 1.93963V9.09972C21 14.1172 16.9177 18.1999 11.8999 18.1999C6.88201 18.1999 2.79972 14.1176 2.79972 9.09972V1.40027C2.79972 0.627539 2.1726 0.000409931 1.39986 0.000409931C0.627129 0.000409931 0 0.627539 0 1.40027V9.10013C0 15.6618 5.33818 21 11.8999 21C18.4615 21 23.7997 15.6618 23.7997 9.10013V1.40027C23.7997 0.627539 23.1726 0 22.3999 0Z" fill="black"/>
</g>
</svg>
