<svg width="50" height="9" viewBox="0 0 50 9" fill="none" xmlns="http://www.w3.org/2000/svg">
<g id="Group">
<path id="Vector" d="M4.60562 5.12416H1.09852V8.80866H0V0.457128H5.17194V1.35778H1.09852V4.21668H4.5988L4.60562 5.12416Z" fill="white"/>
<path id="Vector_2" d="M9.96181 8.80867C9.9004 8.68585 9.85264 8.46751 9.8117 8.15365C9.32043 8.66538 8.72682 8.92466 8.0445 8.92466C7.43042 8.92466 6.93233 8.75409 6.53659 8.4061C6.14767 8.05812 5.9498 7.62144 5.9498 7.08923C5.9498 6.44104 6.19543 5.94295 6.6867 5.58132C7.17796 5.22652 7.8671 5.04229 8.76093 5.04229H9.79123V4.55785C9.79123 4.1894 9.68206 3.88918 9.45689 3.67084C9.23855 3.4525 8.91104 3.34333 8.47436 3.34333C8.09227 3.34333 7.7784 3.43885 7.51912 3.6299C7.25984 3.82095 7.13702 4.05293 7.13702 4.32586H6.07261C6.07261 4.01882 6.18178 3.7186 6.40012 3.42521C6.61846 3.13864 6.91868 2.90665 7.29395 2.74289C7.66923 2.57231 8.08544 2.49044 8.53577 2.49044C9.2522 2.49044 9.8117 2.66784 10.2143 3.02946C10.6168 3.38427 10.8283 3.88236 10.842 4.50326V7.36216C10.842 7.92848 10.917 8.38563 11.0603 8.71997V8.80867H9.96181ZM8.19461 7.99672C8.52895 7.99672 8.84281 7.90801 9.14303 7.73743C9.44325 7.56685 9.65477 7.34169 9.79123 7.06877V5.79284H8.9588C7.66241 5.79284 7.00739 6.17493 7.00739 6.9323C7.00739 7.26664 7.11655 7.52592 7.34172 7.71014C7.56688 7.90801 7.84663 7.99672 8.19461 7.99672Z" fill="white"/>
<path id="Vector_3" d="M15.0041 8.05811C15.3862 8.05811 15.7137 7.94212 15.9934 7.71696C16.2732 7.48497 16.4301 7.1984 16.4642 6.85724H17.4672C17.4468 7.21204 17.3239 7.5532 17.0988 7.87389C16.8736 8.19458 16.5734 8.45386 16.1981 8.64491C15.8228 8.83595 15.4203 8.93147 15.0041 8.93147C14.158 8.93147 13.4893 8.65173 12.9912 8.08541C12.4931 7.51909 12.2407 6.74807 12.2407 5.77236V5.59496C12.2407 4.9877 12.3499 4.45549 12.575 3.98469C12.7934 3.5139 13.1141 3.15227 13.5303 2.89299C13.9465 2.63371 14.4377 2.50407 15.0041 2.50407C15.7 2.50407 16.28 2.71559 16.7371 3.1318C17.1943 3.54801 17.4399 4.08704 17.474 4.75571H16.4642C16.4301 4.35315 16.28 4.02564 16.0071 3.76636C15.7341 3.50708 15.3998 3.37744 14.9972 3.37744C14.4582 3.37744 14.042 3.57531 13.7418 3.9574C13.4484 4.34632 13.2983 4.90582 13.2983 5.64272V5.84059C13.2983 6.55702 13.4484 7.10287 13.7418 7.49179C14.0352 7.86024 14.4582 8.05811 15.0041 8.05811Z" fill="white"/>
<path id="Vector_4" d="M21.2337 8.92466C20.3944 8.92466 19.7053 8.65174 19.1799 8.09906C18.6545 7.54639 18.3884 6.80949 18.3884 5.88154V5.68367C18.3884 5.06958 18.5044 4.51691 18.7432 4.03247C18.9752 3.54802 19.3095 3.17275 19.7326 2.89982C20.1556 2.6269 20.6128 2.49044 21.104 2.49044C21.9092 2.49044 22.5369 2.75654 22.9872 3.28874C23.4375 3.82095 23.6559 4.57832 23.6559 5.56767V6.01118H19.4528C19.4665 6.62526 19.6439 7.11653 19.9918 7.4918C20.3398 7.86707 20.7697 8.05812 21.2951 8.05812C21.6703 8.05812 21.9842 7.98307 22.2503 7.82614C22.5096 7.67603 22.7348 7.47133 22.9326 7.21888L23.5808 7.72379C23.0554 8.5221 22.2776 8.92466 21.2337 8.92466ZM21.104 3.35698C20.6742 3.35698 20.3194 3.51391 20.026 3.82777C19.7326 4.14164 19.5552 4.57832 19.4869 5.13782H22.5915V5.05594C22.5574 4.51691 22.4141 4.1007 22.1548 3.80048C21.9023 3.50709 21.5475 3.35698 21.104 3.35698Z" fill="white"/>
<path id="Vector_5" d="M30.1378 5.77238C30.1378 6.7208 29.9195 7.48499 29.4828 8.05813C29.0461 8.63128 28.4594 8.91785 27.7293 8.91785C26.9446 8.91785 26.3374 8.6381 25.9143 8.08543L25.8666 8.80186H24.8908V0H25.9484V3.28876C26.3783 2.75655 26.9651 2.49045 27.7225 2.49045C28.473 2.49045 29.0666 2.77702 29.4965 3.34334C29.9263 3.90966 30.1447 4.69432 30.1447 5.68368V5.77238H30.1378ZM29.0734 5.65639C29.0734 4.93313 28.937 4.37363 28.6572 3.98472C28.3775 3.58897 27.9749 3.3911 27.4495 3.3911C26.7467 3.3911 26.2487 3.71861 25.9416 4.36681V7.04831C26.2691 7.69651 26.774 8.02402 27.4632 8.02402C27.9681 8.02402 28.3638 7.82615 28.6504 7.4304C28.9301 7.03466 29.0734 6.44787 29.0734 5.65639Z" fill="white"/>
<path id="Vector_6" d="M31.1886 5.64955C31.1886 5.04229 31.3114 4.49644 31.5434 4.012C31.7822 3.52755 32.1166 3.15228 32.5396 2.88618C32.9626 2.62007 33.4539 2.49044 33.9998 2.49044C34.8458 2.49044 35.5282 2.78383 36.0467 3.37062C36.5653 3.95741 36.8314 4.73525 36.8314 5.70414V5.77919C36.8314 6.38645 36.7154 6.92548 36.4834 7.4031C36.2514 7.88072 35.9239 8.25599 35.494 8.5221C35.0642 8.7882 34.5729 8.92466 34.0134 8.92466C33.1742 8.92466 32.4918 8.63127 31.9665 8.04447C31.4479 7.45768 31.1818 6.68667 31.1818 5.7246L31.1886 5.64955ZM32.253 5.77237C32.253 6.46151 32.41 7.01418 32.7307 7.43039C33.0513 7.8466 33.4744 8.05812 34.0134 8.05812C34.5524 8.05812 34.9823 7.8466 35.2962 7.42357C35.61 7.00053 35.7738 6.40692 35.7738 5.64955C35.7738 4.96724 35.61 4.42138 35.2893 3.99835C34.9687 3.57531 34.5388 3.3638 33.9998 3.3638C33.4744 3.3638 33.0513 3.57532 32.7307 3.99153C32.4168 4.40092 32.253 5.00135 32.253 5.77237Z" fill="white"/>
<path id="Vector_7" d="M37.8889 5.64955C37.8889 5.04229 38.0117 4.49644 38.2437 4.012C38.4825 3.52755 38.8169 3.15228 39.2399 2.88618C39.6629 2.62007 40.1542 2.49044 40.7001 2.49044C41.5461 2.49044 42.2284 2.78383 42.747 3.37062C43.2656 3.95741 43.5317 4.73525 43.5317 5.70414V5.77919C43.5317 6.38645 43.4157 6.92548 43.1837 7.4031C42.9517 7.88072 42.6242 8.25599 42.1943 8.5221C41.7645 8.7882 41.2732 8.92466 40.7137 8.92466C39.8745 8.92466 39.1921 8.63127 38.6668 8.04447C38.1414 7.45768 37.8821 6.68667 37.8821 5.7246L37.8889 5.64955ZM38.9533 5.77237C38.9533 6.46151 39.1103 7.01418 39.4309 7.43039C39.7516 7.8466 40.1747 8.05812 40.7137 8.05812C41.2527 8.05812 41.6826 7.8466 41.9964 7.42357C42.3103 7.00053 42.4741 6.40692 42.4741 5.64955C42.4741 4.96724 42.3103 4.42138 41.9896 3.99835C41.6689 3.57531 41.2391 3.3638 40.7001 3.3638C40.1747 3.3638 39.7516 3.57532 39.4309 3.99153C39.1171 4.40092 38.9533 5.00135 38.9533 5.77237Z" fill="white"/>
<path id="Vector_8" d="M46.5953 5.93614L45.9334 6.6321V8.80868H44.8758V0H45.9334V5.32887L46.4997 4.64656L48.4307 2.60644H49.7203L47.3049 5.19924L50 8.80868H48.7582L46.5953 5.93614Z" fill="white"/>
</g>
</svg>
