<svg width="10" height="18" viewBox="0 0 10 18" fill="none" xmlns="http://www.w3.org/2000/svg">
<g id="Group">
<path id="Vector" d="M7.09702 0C7.57711 0 8.06416 0.0278302 8.54426 0.0487038C8.85736 0.0626195 9.17047 0.104368 9.4627 0.139157L9.44182 3.03363C9.35137 3.03363 9.28179 3.03363 9.21221 3.03363C8.89215 3.03363 8.57905 3.02667 8.25899 3.02667C8.02242 3.02667 7.77889 3.02667 7.54232 3.04059C6.77696 3.06842 6.20642 3.35369 6.17163 4.31388C6.1438 5.0027 6.12988 6.52648 6.12988 6.60997C6.17163 6.60997 6.93003 6.60997 7.6954 6.60997C8.07808 6.60997 8.45381 6.60997 8.71125 6.60997C8.91303 6.60997 9.10785 6.60997 9.3305 6.60997C9.17742 7.72323 9.03131 8.79474 8.87824 9.86625H6.12292L6.0603 18H2.68574L2.74836 9.85234H0L0.027831 6.61693H2.79706V6.3734C2.80402 5.71936 2.79706 5.06533 2.81794 4.41824C2.82489 4.00773 2.85272 3.5833 2.9223 3.17974C3.11017 2.18477 3.56939 1.35678 4.39737 0.758407C5.12099 0.243525 5.94897 0.0208736 6.82567 0C6.91612 0 7.00657 0 7.09702 0Z" fill="white"/>
</g>
</svg>
