<svg width="36" height="12" viewBox="0 0 36 12" fill="none" xmlns="http://www.w3.org/2000/svg">
<g id="Group">
<path id="Vector" d="M6.44103 7.7265C6.15385 8.12992 5.76411 8.43761 5.25812 8.6359C4.75214 8.83419 4.15727 8.93676 3.48718 8.93676C2.80342 8.93676 2.20171 8.7795 1.66838 8.45813C1.13504 8.13676 0.731624 7.68548 0.444445 7.09061C0.157265 6.50257 0.00683761 5.81881 0 5.03932V4.3077C0 3.04958 0.294019 2.0718 0.882053 1.37436C1.47009 0.683765 2.29744 0.335048 3.3641 0.335048C4.23932 0.335048 4.94359 0.560688 5.47009 1.00513C6.00342 1.44958 6.32479 2.08548 6.44786 2.90599H5.34701C5.14188 1.7983 4.47863 1.23761 3.37094 1.23761C2.63248 1.23761 2.0718 1.49744 1.68889 2.0171C1.30598 2.53676 1.11453 3.2889 1.11453 4.27351V4.95727C1.11453 5.89402 1.3265 6.64616 1.75727 7.20001C2.18804 7.75385 2.76923 8.0342 3.50086 8.0342C3.91795 8.0342 4.27351 7.98633 4.58804 7.89744C4.90257 7.80855 5.15556 7.65129 5.36069 7.43249V5.55898H3.42564V4.65642H6.44103V7.7265Z" fill="white"/>
<path id="Vector_2" d="M7.82909 5.66153C7.82909 5.05298 7.94533 4.50597 8.18465 4.0205C8.42396 3.53503 8.759 3.15896 9.18294 2.8923C9.60687 2.62563 10.0992 2.49571 10.6462 2.49571C11.4941 2.49571 12.1778 2.78973 12.6975 3.37776C13.2171 3.9658 13.4838 4.74529 13.4838 5.71623V5.79144C13.4838 6.39999 13.3676 6.94016 13.1351 7.41879C12.9026 7.89743 12.5744 8.27349 12.1436 8.54016C11.7129 8.80683 11.2137 8.94358 10.6599 8.94358C9.81884 8.94358 9.13508 8.64956 8.60858 8.06153C8.08892 7.47349 7.82225 6.70084 7.82225 5.73674L7.82909 5.66153ZM8.9026 5.7846C8.9026 6.4752 9.05986 7.02905 9.38123 7.44614C9.7026 7.86324 10.1265 8.0752 10.6667 8.0752C11.2069 8.0752 11.6376 7.86324 11.9522 7.43931C12.2667 7.01537 12.4308 6.4205 12.4308 5.66153C12.4308 4.97777 12.2667 4.43076 11.9453 4.00682C11.624 3.58289 11.1932 3.37093 10.653 3.37093C10.1265 3.37093 9.7026 3.58289 9.38123 3.99999C9.05986 4.41025 8.9026 5.01195 8.9026 5.7846Z" fill="white"/>
<path id="Vector_3" d="M14.5436 5.66153C14.5436 5.05298 14.6598 4.50597 14.8991 4.0205C15.1385 3.53503 15.4735 3.15896 15.8974 2.8923C16.3214 2.62563 16.8137 2.49571 17.3607 2.49571C18.2085 2.49571 18.8923 2.78973 19.412 3.37776C19.9316 3.9658 20.1983 4.74529 20.1983 5.71623V5.79144C20.1983 6.39999 20.082 6.94016 19.8496 7.41879C19.6171 7.89743 19.2889 8.27349 18.8581 8.54016C18.4273 8.80683 17.9282 8.94358 17.3744 8.94358C16.5333 8.94358 15.8496 8.64956 15.3231 8.06153C14.7966 7.47349 14.5368 6.70084 14.5368 5.73674L14.5436 5.66153ZM15.6103 5.7846C15.6103 6.4752 15.7675 7.02905 16.0889 7.44614C16.4103 7.86324 16.8342 8.0752 17.3744 8.0752C17.9145 8.0752 18.3453 7.86324 18.6598 7.43931C18.9744 7.01537 19.1385 6.4205 19.1385 5.66153C19.1385 4.97777 18.9744 4.43076 18.653 4.00682C18.3316 3.58289 17.9009 3.37093 17.3607 3.37093C16.8342 3.37093 16.4103 3.58289 16.0889 3.99999C15.7744 4.41025 15.6103 5.01195 15.6103 5.7846Z" fill="white"/>
<path id="Vector_4" d="M21.2855 5.66836C21.2855 4.69742 21.5111 3.93161 21.9556 3.35725C22.4068 2.78289 22.9949 2.49571 23.7402 2.49571C24.4992 2.49571 25.0872 2.76238 25.518 3.30255L25.5727 2.61195H26.5436V8.67691C26.5436 9.48375 26.3043 10.1128 25.8256 10.5778C25.347 11.0427 24.7111 11.2752 23.9043 11.2752C23.453 11.2752 23.0154 11.1795 22.5915 10.988C22.1607 10.7966 21.8325 10.5367 21.6068 10.2017L22.1607 9.5658C22.6188 10.1265 23.1727 10.4068 23.8291 10.4068C24.3487 10.4068 24.7521 10.2632 25.0393 9.96922C25.3265 9.6752 25.4701 9.26495 25.4701 8.73845V8.20512C25.0462 8.69743 24.465 8.94358 23.7265 8.94358C23.0017 8.94358 22.4068 8.64956 21.9624 8.06153C21.5111 7.47349 21.2855 6.68033 21.2855 5.66836ZM22.3521 5.7846C22.3521 6.48888 22.4957 7.03589 22.7829 7.43931C23.0701 7.84272 23.4735 8.04101 23.9932 8.04101C24.6633 8.04101 25.1556 7.73332 25.4701 7.12478V4.28717C25.1419 3.6923 24.6564 3.39828 24.0068 3.39828C23.4872 3.39828 23.0838 3.59657 22.7966 3.99999C22.4957 4.40341 22.3521 4.99828 22.3521 5.7846Z" fill="white"/>
<path id="Vector_5" d="M29.2923 8.82735H28.2325V0H29.2923V8.82735Z" fill="white"/>
<path id="Vector_6" d="M33.5726 8.94358C32.7316 8.94358 32.041 8.67008 31.5145 8.11623C30.988 7.56238 30.7214 6.82392 30.7214 5.89401V5.69572C30.7214 5.08033 30.8376 4.52648 31.0769 4.04101C31.3094 3.55554 31.6444 3.17948 32.0684 2.90597C32.4923 2.63247 32.9504 2.49571 33.4427 2.49571C34.2496 2.49571 34.8786 2.76238 35.3299 3.29572C35.7812 3.82905 36 4.58802 36 5.57948V6.02392H31.788C31.8017 6.6393 31.9795 7.13161 32.3282 7.50768C32.6769 7.88375 33.1077 8.0752 33.6342 8.0752C34.0102 8.0752 34.3248 7.99999 34.5914 7.84273C34.8513 7.6923 35.0769 7.48717 35.2752 7.23418L35.9248 7.74016C35.3983 8.54016 34.6188 8.94358 33.5726 8.94358ZM33.4427 3.36409C33.012 3.36409 32.6564 3.52135 32.3624 3.83588C32.0684 4.15041 31.8906 4.58802 31.8222 5.14871H34.9333V5.06665C34.8991 4.52648 34.7555 4.10939 34.4957 3.80854C34.2359 3.50768 33.8872 3.36409 33.4427 3.36409Z" fill="white"/>
</g>
</svg>
