<svg width="13" height="13" viewBox="0 0 13 13" fill="none" xmlns="http://www.w3.org/2000/svg">
<g id="Group">
<path id="Vector" d="M6.68589 0C7.78793 0.0136054 8.81514 0.285714 9.76072 0.843537C10.3934 1.20408 10.7539 1.57823 10.9104 1.68708C10.2641 2.32653 9.63827 2.95238 8.99882 3.57823C8.52943 3.17007 8.00562 2.79592 7.10086 2.65986C6.91038 2.63265 6.72671 2.61905 6.54304 2.61905C4.72671 2.61905 3.2029 3.93197 2.79474 5.65306C2.6995 6.04081 2.67229 6.43537 2.7063 6.82993C2.84236 8.42857 3.91719 9.74149 5.36617 10.2109C5.73351 10.3265 6.11447 10.3809 6.50222 10.3809C6.59066 10.3809 6.67909 10.3809 6.77433 10.3741C7.4546 10.3333 8.09406 10.1497 8.67229 9.7687C9.64508 9.10884 9.9648 8.06802 9.9648 7.80952C9.78113 7.80952 6.64508 7.80952 6.48181 7.80952C6.48181 7.72109 6.49542 6.09523 6.50222 5.29932L6.50902 5.19047C8.54984 5.19047 10.5839 5.19047 12.6247 5.19047C12.9512 7.09524 12.6587 9.10884 11.4682 10.6735C10.6451 11.7551 9.55664 12.4354 8.25052 12.7755C7.67229 12.9252 7.08725 13 6.49542 13C6.36617 13 6.24372 12.9932 6.11447 12.9864C4.84236 12.9116 3.67909 12.5102 2.65188 11.7551C1.32535 10.7823 0.495421 9.47618 0.14168 7.87074C0.0124282 7.28571 -0.0283883 6.70748 0.0192307 6.12245C0.114469 4.73469 0.597462 3.48979 1.48862 2.40816C2.41379 1.27891 3.58385 0.537416 4.99202 0.183674C5.34576 0.0884362 5.7063 0.0340144 6.06685 0.0136063C6.27773 0.0136063 6.48181 0 6.68589 0Z" fill="white"/>
</g>
</svg>
